<?xml version="1.0" encoding="UTF-8"?>
<svg xmlns="http://www.w3.org/2000/svg" xmlns:xlink="http://www.w3.org/1999/xlink" width="100px" height="100px" viewBox="0 0 100 100" version="1.1">
<g id="surface1">
<path style=" stroke:none;fill-rule:nonzero;fill:rgb(100%,100%,63.137255%);fill-opacity:1;" d="M 85.671875 33.691406 C 85.046875 23.632812 76.710938 15.691406 66.503906 15.691406 C 56.296875 15.691406 47.960938 23.632812 47.335938 33.691406 L 51.671875 33.691406 C 52.285156 25.976562 58.691406 20.019531 66.496094 20.019531 C 74.296875 20.019531 80.703125 25.976562 81.320312 33.691406 L 81.328125 33.691406 L 81.328125 75.683594 L 85.722656 75.683594 L 85.722656 33.691406 Z M 85.671875 33.691406 "/>
<path style=" stroke:none;fill-rule:nonzero;fill:rgb(31.764706%,31.764706%,31.764706%);fill-opacity:1;" d="M 86.132812 76.074219 L 80.957031 76.074219 L 80.957031 33.835938 L 80.945312 33.71875 C 80.34375 26.132812 74.140625 20.410156 66.515625 20.410156 C 58.886719 20.410156 52.6875 26.132812 52.078125 33.71875 L 52.050781 34.082031 L 46.933594 34.082031 L 46.960938 33.671875 C 47.273438 28.691406 49.445312 24.0625 53.078125 20.644531 C 56.726562 17.207031 61.496094 15.3125 66.523438 15.3125 C 71.542969 15.3125 76.320312 17.207031 79.960938 20.644531 C 83.507812 23.984375 85.65625 28.476562 86.046875 33.3125 L 86.132812 33.3125 Z M 81.738281 75.292969 L 85.351562 75.292969 L 85.351562 34.082031 L 85.3125 34.082031 L 85.292969 33.710938 C 84.679688 23.828125 76.4375 16.085938 66.511719 16.085938 C 56.738281 16.085938 48.582031 23.613281 47.761719 33.300781 L 51.328125 33.300781 C 51.707031 29.601562 53.40625 26.203125 56.132812 23.679688 C 58.953125 21.074219 62.636719 19.640625 66.511719 19.640625 C 70.390625 19.640625 74.070312 21.074219 76.894531 23.679688 C 79.617188 26.203125 81.316406 29.609375 81.699219 33.300781 L 81.746094 33.300781 L 81.746094 75.292969 Z M 81.738281 75.292969 "/>
<path style=" stroke:none;fill-rule:nonzero;fill:rgb(100%,100%,100%);fill-opacity:1;" d="M 39.171875 49.773438 L 31.035156 57.910156 C 27.355469 61.59375 21.386719 61.59375 17.714844 57.910156 C 14.03125 54.226562 14.03125 48.261719 17.714844 44.589844 L 25.851562 36.453125 C 29.53125 32.773438 35.5 32.773438 39.171875 36.453125 C 42.851562 40.125 42.851562 46.09375 39.171875 49.777344 Z M 39.171875 49.773438 "/>
<path style=" stroke:none;fill-rule:nonzero;fill:rgb(31.764706%,31.764706%,31.764706%);fill-opacity:1;" d="M 24.382812 61.046875 C 21.875 61.046875 19.355469 60.089844 17.453125 58.175781 C 13.625 54.34375 13.625 48.125 17.453125 44.296875 L 25.585938 36.164062 C 29.414062 32.335938 35.632812 32.335938 39.460938 36.164062 C 43.289062 39.992188 43.289062 46.210938 39.460938 50.039062 L 31.328125 58.171875 C 29.40625 60.085938 26.894531 61.042969 24.382812 61.042969 Z M 32.507812 34.082031 C 30.195312 34.082031 27.882812 34.960938 26.125 36.71875 L 17.988281 44.851562 C 14.460938 48.378906 14.460938 54.101562 17.988281 57.625 C 21.515625 61.152344 27.234375 61.152344 30.761719 57.625 L 38.898438 49.492188 C 42.421875 45.96875 42.421875 40.242188 38.898438 36.71875 C 37.140625 34.960938 34.824219 34.082031 32.507812 34.082031 Z M 32.507812 34.082031 "/>
<path style=" stroke:none;fill-rule:nonzero;fill:rgb(100%,100%,100%);fill-opacity:1;" d="M 55.15625 38.039062 L 50.253906 38.039062 C 48.367188 38.039062 46.84375 36.515625 46.84375 34.628906 L 46.84375 29.875 C 46.84375 27.988281 48.367188 26.464844 50.253906 26.464844 L 55.15625 26.464844 C 57.039062 26.464844 58.5625 27.988281 58.5625 29.875 L 58.5625 34.628906 C 58.5625 36.515625 57.03125 38.039062 55.15625 38.039062 Z M 55.15625 38.039062 "/>
<path style=" stroke:none;fill-rule:nonzero;fill:rgb(31.764706%,31.764706%,31.764706%);fill-opacity:1;" d="M 55.15625 38.429688 L 50.253906 38.429688 C 48.152344 38.429688 46.453125 36.71875 46.453125 34.628906 L 46.453125 29.875 C 46.453125 27.773438 48.164062 26.074219 50.253906 26.074219 L 55.15625 26.074219 C 57.253906 26.074219 58.953125 27.785156 58.953125 29.875 L 58.953125 34.628906 C 58.953125 36.71875 57.246094 38.429688 55.15625 38.429688 Z M 50.253906 26.855469 C 48.59375 26.855469 47.238281 28.210938 47.238281 29.871094 L 47.238281 34.628906 C 47.238281 36.289062 48.59375 37.644531 50.253906 37.644531 L 55.15625 37.644531 C 56.816406 37.644531 58.175781 36.289062 58.175781 34.628906 L 58.175781 29.871094 C 58.175781 28.210938 56.816406 26.855469 55.15625 26.855469 Z M 50.253906 26.855469 "/>
<path style=" stroke:none;fill-rule:nonzero;fill:rgb(100%,100%,63.137255%);fill-opacity:1;" d="M 51.375 33.691406 L 41.367188 33.691406 C 38.457031 33.691406 35.664062 34.84375 33.601562 36.90625 L 10.488281 60.019531 C 4.835938 65.671875 4.835938 74.84375 10.488281 80.5 C 16.140625 86.152344 25.3125 86.152344 30.96875 80.5 L 59.140625 52.324219 C 59.226562 52.234375 59.316406 52.140625 59.40625 52.050781 C 65.96875 45.125 60.917969 33.691406 51.375 33.691406 Z M 51.375 33.691406 "/>
<path style=" stroke:none;fill-rule:nonzero;fill:rgb(31.764706%,31.764706%,31.764706%);fill-opacity:1;" d="M 20.734375 85.125 C 16.757812 85.125 13.027344 83.585938 10.214844 80.773438 C 4.414062 74.96875 4.414062 65.539062 10.214844 59.746094 L 33.328125 36.632812 C 35.476562 34.484375 38.328125 33.300781 41.367188 33.300781 L 51.375 33.300781 C 55.996094 33.300781 59.992188 35.945312 61.828125 40.203125 C 63.625 44.394531 62.804688 49.03125 59.6875 52.3125 C 59.601562 52.410156 59.503906 52.5 59.414062 52.597656 L 31.238281 80.773438 C 28.4375 83.574219 24.695312 85.125 20.734375 85.125 Z M 41.367188 34.082031 C 38.546875 34.082031 35.878906 35.1875 33.886719 37.179688 L 10.773438 60.292969 C 8.105469 62.949219 6.640625 66.492188 6.640625 70.253906 C 6.640625 74.015625 8.105469 77.558594 10.773438 80.214844 C 13.429688 82.871094 16.972656 84.34375 20.734375 84.34375 C 24.492188 84.34375 28.039062 82.882812 30.695312 80.214844 L 58.867188 52.039062 L 59.132812 51.777344 C 62.03125 48.71875 62.792969 44.402344 61.113281 40.507812 C 59.402344 36.542969 55.683594 34.070312 51.386719 34.070312 L 41.367188 34.070312 Z M 41.367188 34.082031 "/>
<path style=" stroke:none;fill-rule:nonzero;fill:rgb(100%,100%,100%);fill-opacity:1;" d="M 20.136719 69.25 C 20.136719 79.34375 28.320312 87.53125 38.417969 87.53125 C 48.515625 87.53125 56.699219 79.34375 56.699219 69.246094 C 56.699219 59.152344 48.515625 50.96875 38.417969 50.96875 C 28.320312 50.96875 20.136719 59.152344 20.136719 69.25 Z M 20.136719 69.25 "/>
<path style=" stroke:none;fill-rule:nonzero;fill:rgb(31.764706%,31.764706%,31.764706%);fill-opacity:1;" d="M 38.417969 87.921875 C 28.125 87.921875 19.746094 79.539062 19.746094 69.246094 C 19.746094 58.953125 28.125 50.585938 38.417969 50.585938 C 48.710938 50.585938 57.089844 58.964844 57.089844 69.257812 C 57.089844 79.550781 48.710938 87.921875 38.417969 87.921875 Z M 38.417969 51.367188 C 28.554688 51.367188 20.527344 59.394531 20.527344 69.257812 C 20.527344 79.121094 28.554688 87.148438 38.417969 87.148438 C 48.28125 87.148438 56.308594 79.121094 56.308594 69.257812 C 56.308594 59.394531 48.28125 51.367188 38.417969 51.367188 Z M 38.417969 51.367188 "/>
<path style=" stroke:none;fill-rule:nonzero;fill:rgb(100%,100%,63.137255%);fill-opacity:1;" d="M 31.230469 69.25 C 31.230469 73.21875 34.449219 76.4375 38.417969 76.4375 C 42.386719 76.4375 45.605469 73.21875 45.605469 69.25 C 45.605469 65.277344 42.386719 62.0625 38.417969 62.0625 C 34.449219 62.0625 31.230469 65.277344 31.230469 69.25 Z M 31.230469 69.25 "/>
<path style=" stroke:none;fill-rule:nonzero;fill:rgb(31.764706%,31.764706%,31.764706%);fill-opacity:1;" d="M 38.417969 76.828125 C 34.238281 76.828125 30.839844 73.429688 30.839844 69.25 C 30.839844 65.070312 34.238281 61.671875 38.417969 61.671875 C 42.597656 61.671875 45.996094 65.070312 45.996094 69.25 C 45.996094 73.429688 42.597656 76.828125 38.417969 76.828125 Z M 38.417969 62.460938 C 34.667969 62.460938 31.621094 65.507812 31.621094 69.257812 C 31.621094 73.007812 34.667969 76.054688 38.417969 76.054688 C 42.167969 76.054688 45.214844 73.007812 45.214844 69.257812 C 45.214844 65.507812 42.167969 62.460938 38.417969 62.460938 Z M 38.417969 62.460938 "/>
<path style=" stroke:none;fill-rule:nonzero;fill:rgb(100%,100%,100%);fill-opacity:1;" d="M 90.03125 87.53125 L 77.039062 87.53125 C 74.992188 87.53125 73.328125 85.867188 73.328125 83.820312 C 73.328125 81.765625 74.992188 80.109375 77.039062 80.109375 L 90.03125 80.109375 C 92.078125 80.109375 93.742188 81.765625 93.742188 83.820312 C 93.742188 85.867188 92.078125 87.53125 90.03125 87.53125 Z M 90.03125 87.53125 "/>
<path style=" stroke:none;fill-rule:nonzero;fill:rgb(31.764706%,31.764706%,31.764706%);fill-opacity:1;" d="M 90.03125 87.921875 L 77.039062 87.921875 C 74.773438 87.921875 72.9375 86.074219 72.9375 83.820312 C 72.9375 81.5625 74.785156 79.71875 77.039062 79.71875 L 90.03125 79.71875 C 92.296875 79.71875 94.132812 81.5625 94.132812 83.820312 C 94.132812 86.074219 92.296875 87.921875 90.03125 87.921875 Z M 77.039062 80.488281 C 75.203125 80.488281 73.71875 81.980469 73.71875 83.808594 C 73.71875 85.632812 75.214844 87.128906 77.039062 87.128906 L 90.03125 87.128906 C 91.867188 87.128906 93.351562 85.632812 93.351562 83.808594 C 93.351562 81.980469 91.855469 80.488281 90.03125 80.488281 Z M 77.039062 80.488281 "/>
<path style=" stroke:none;fill-rule:nonzero;fill:rgb(100%,100%,100%);fill-opacity:1;" d="M 87.390625 80.097656 L 79.667969 80.097656 C 78.445312 80.097656 77.460938 79.109375 77.460938 77.890625 C 77.460938 76.671875 78.445312 75.683594 79.667969 75.683594 L 87.390625 75.683594 C 88.613281 75.683594 89.601562 76.671875 89.601562 77.890625 C 89.601562 79.109375 88.613281 80.097656 87.390625 80.097656 Z M 87.390625 80.097656 "/>
<path style=" stroke:none;fill-rule:nonzero;fill:rgb(31.764706%,31.764706%,31.764706%);fill-opacity:1;" d="M 87.390625 80.488281 L 79.667969 80.488281 C 78.230469 80.488281 77.070312 79.328125 77.070312 77.890625 C 77.070312 76.453125 78.230469 75.292969 79.667969 75.292969 L 87.390625 75.292969 C 88.828125 75.292969 89.992188 76.453125 89.992188 77.890625 C 89.992188 79.328125 88.828125 80.488281 87.390625 80.488281 Z M 79.679688 76.074219 C 78.671875 76.074219 77.859375 76.882812 77.859375 77.890625 C 77.859375 78.898438 78.671875 79.707031 79.679688 79.707031 L 87.402344 79.707031 C 88.40625 79.707031 89.21875 78.898438 89.21875 77.890625 C 89.21875 76.882812 88.40625 76.074219 87.402344 76.074219 Z M 79.679688 76.074219 "/>
</g>
</svg>
