<?xml version="1.0" encoding="UTF-8"?>
<!DOCTYPE svg PUBLIC "-//W3C//DTD SVG 1.1//EN" "http://www.w3.org/Graphics/SVG/1.1/DTD/svg11.dtd">
<svg xmlns="http://www.w3.org/2000/svg" version="1.1" width="225px" height="225px" style="shape-rendering:geometricPrecision; text-rendering:geometricPrecision; image-rendering:optimizeQuality; fill-rule:evenodd; clip-rule:evenodd" xmlns:xlink="http://www.w3.org/1999/xlink">
<g><path style="opacity:0.932" fill="#000000" d="M 224.5,199.5 C 224.5,201.833 224.5,204.167 224.5,206.5C 223.684,208.144 222.35,209.31 220.5,210C 204.167,210.667 187.833,210.667 171.5,210C 165.867,204.513 166.534,199.846 173.5,196C 176.146,195.503 178.813,195.336 181.5,195.5C 187.293,145.693 177.46,99.3595 152,56.5C 147.863,50.3959 143.363,44.5626 138.5,39C 130.753,34.9634 123.919,36.13 118,42.5C 114.743,48.1957 114.743,53.8624 118,59.5C 127.708,68.2469 134.375,78.9136 138,91.5C 141.176,107.63 137.676,122.13 127.5,135C 150.49,153.591 153.324,174.758 136,198.5C 129.694,204.57 122.194,208.404 113.5,210C 94.1667,210.333 74.8333,210.667 55.5,211C 36.3497,222 19.5164,219.167 5,202.5C 2.6512,198.259 0.817868,193.925 -0.5,189.5C -0.5,184.5 -0.5,179.5 -0.5,174.5C 1.82874,165.865 6.66207,158.865 14,153.5C 15.5473,146.885 16.8806,140.218 18,133.5C 23.232,117.601 34.0654,108.101 50.5,105C 63.8811,104.097 77.2145,104.43 90.5,106C 95.6753,107.387 100.342,109.72 104.5,113C 108.367,117.202 112.533,121.035 117,124.5C 126.41,110.71 126.743,96.7104 118,82.5C 110.709,75.2198 105.042,66.8865 101,57.5C 98.9565,39.0786 106.79,27.2453 124.5,22C 138.467,20.5664 149.3,25.733 157,37.5C 189.879,85.0169 203.046,137.684 196.5,195.5C 203.841,195.334 211.174,195.5 218.5,196C 220.887,196.564 222.887,197.73 224.5,199.5 Z M 51.5,119.5 C 62.505,119.333 73.505,119.5 84.5,120C 88.538,120.899 92.2046,122.566 95.5,125C 106.637,135.137 117.471,145.637 128,156.5C 136.17,174.651 131.003,187.484 112.5,195C 97.5,195.667 82.5,195.667 67.5,195C 73.732,174.125 67.0653,158.792 47.5,149C 41.9678,147.274 36.3011,146.274 30.5,146C 31.4679,132.216 38.4679,123.383 51.5,119.5 Z M 30.5,161.5 C 47.3008,161.467 55.4674,169.8 55,186.5C 49.2407,201.652 38.7407,206.152 23.5,200C 14.175,192.186 12.0083,182.686 17,171.5C 20.4043,166.561 24.9043,163.228 30.5,161.5 Z"/></g>
</svg>
