<?xml version="1.0" encoding="UTF-8"?>
<svg xmlns="http://www.w3.org/2000/svg" xmlns:xlink="http://www.w3.org/1999/xlink" width="100px" height="100px" viewBox="0 0 100 100" version="1.1">
<defs>
<filter id="alpha" filterUnits="objectBoundingBox" x="0%" y="0%" width="100%" height="100%">
  <feColorMatrix type="matrix" in="SourceGraphic" values="0 0 0 0 1 0 0 0 0 1 0 0 0 0 1 0 0 0 1 0"/>
</filter>
<mask id="mask0">
  <g filter="url(#alpha)">
<rect x="0" y="0" width="100" height="100" style="fill:rgb(0%,0%,0%);fill-opacity:0.192157;stroke:none;"/>
  </g>
</mask>
<clipPath id="clip1">
  <rect x="0" y="0" width="100" height="100"/>
</clipPath>
<g id="surface5" clip-path="url(#clip1)">
<path style=" stroke:none;fill-rule:evenodd;fill:rgb(71.764706%,71.764706%,71.764706%);fill-opacity:1;" d="M 51.550781 16.667969 L 53.101562 18.292969 C 53.054688 18.734375 52.796875 19.003906 52.324219 19.105469 C 51.640625 18.433594 51.378906 17.621094 51.550781 16.667969 Z M 51.550781 16.667969 "/>
</g>
<mask id="mask1">
  <g filter="url(#alpha)">
<rect x="0" y="0" width="100" height="100" style="fill:rgb(0%,0%,0%);fill-opacity:0.270588;stroke:none;"/>
  </g>
</mask>
<clipPath id="clip2">
  <rect x="0" y="0" width="100" height="100"/>
</clipPath>
<g id="surface8" clip-path="url(#clip2)">
<path style=" stroke:none;fill-rule:evenodd;fill:rgb(70.588235%,70.588235%,70.588235%);fill-opacity:1;" d="M 6.589844 23.984375 L 6.589844 28.046875 L 64.730469 28.046875 C 45.101562 28.863281 25.457031 29.132812 5.8125 28.863281 C 5.585938 27.042969 5.84375 25.417969 6.589844 23.984375 Z M 6.589844 23.984375 "/>
</g>
<mask id="mask2">
  <g filter="url(#alpha)">
<rect x="0" y="0" width="100" height="100" style="fill:rgb(0%,0%,0%);fill-opacity:0.113725;stroke:none;"/>
  </g>
</mask>
<clipPath id="clip3">
  <rect x="0" y="0" width="100" height="100"/>
</clipPath>
<g id="surface11" clip-path="url(#clip3)">
<path style=" stroke:none;fill-rule:evenodd;fill:rgb(85.490196%,85.490196%,85.490196%);fill-opacity:1;" d="M 65.503906 32.925781 L 5.8125 32.925781 L 5.8125 36.179688 C 5.078125 35.023438 4.820312 33.671875 5.039062 32.113281 C 25.328125 31.84375 45.480469 32.117188 65.503906 32.925781 Z M 65.503906 32.925781 "/>
</g>
<mask id="mask3">
  <g filter="url(#alpha)">
<rect x="0" y="0" width="100" height="100" style="fill:rgb(0%,0%,0%);fill-opacity:0.956863;stroke:none;"/>
  </g>
</mask>
<clipPath id="clip4">
  <rect x="0" y="0" width="100" height="100"/>
</clipPath>
<g id="surface14" clip-path="url(#clip4)">
<path style=" stroke:none;fill-rule:evenodd;fill:rgb(40.392157%,40.392157%,40.392157%);fill-opacity:1;" d="M 65.503906 34.554688 C 65.691406 36.503906 65.171875 38.128906 63.953125 39.429688 C 64.027344 37.574219 64.542969 35.945312 65.503906 34.554688 Z M 65.503906 34.554688 "/>
</g>
<mask id="mask4">
  <g filter="url(#alpha)">
<rect x="0" y="0" width="100" height="100" style="fill:rgb(0%,0%,0%);fill-opacity:0.133333;stroke:none;"/>
  </g>
</mask>
<clipPath id="clip5">
  <rect x="0" y="0" width="100" height="100"/>
</clipPath>
<g id="surface17" clip-path="url(#clip5)">
<path style=" stroke:none;fill-rule:evenodd;fill:rgb(67.45098%,67.45098%,67.45098%);fill-opacity:1;" d="M 80.234375 34.554688 C 80.453125 37.261719 79.9375 39.699219 78.683594 41.871094 C 78.820312 39.246094 79.335938 36.808594 80.234375 34.554688 Z M 80.234375 34.554688 "/>
</g>
<mask id="mask5">
  <g filter="url(#alpha)">
<rect x="0" y="0" width="100" height="100" style="fill:rgb(0%,0%,0%);fill-opacity:0.85098;stroke:none;"/>
  </g>
</mask>
<clipPath id="clip6">
  <rect x="0" y="0" width="100" height="100"/>
</clipPath>
<g id="surface20" clip-path="url(#clip6)">
<path style=" stroke:none;fill-rule:evenodd;fill:rgb(47.058824%,47.058824%,47.058824%);fill-opacity:1;" d="M 63.179688 42.683594 C 63.25 44.839844 62.730469 46.738281 61.628906 48.375 C 61.558594 46.21875 62.074219 44.320312 63.179688 42.683594 Z M 63.179688 42.683594 "/>
</g>
<mask id="mask6">
  <g filter="url(#alpha)">
<rect x="0" y="0" width="100" height="100" style="fill:rgb(0%,0%,0%);fill-opacity:0.372549;stroke:none;"/>
  </g>
</mask>
<clipPath id="clip7">
  <rect x="0" y="0" width="100" height="100"/>
</clipPath>
<g id="surface23" clip-path="url(#clip7)">
<path style=" stroke:none;fill-rule:evenodd;fill:rgb(58.823529%,58.823529%,58.823529%);fill-opacity:1;" d="M 4.261719 46.746094 C 3.503906 49.5625 3.246094 52.542969 3.488281 55.691406 C 2.46875 51.75 2.46875 47.683594 3.488281 43.496094 C 4.207031 44.460938 4.464844 45.546875 4.261719 46.746094 Z M 4.261719 46.746094 "/>
</g>
<mask id="mask7">
  <g filter="url(#alpha)">
<rect x="0" y="0" width="100" height="100" style="fill:rgb(0%,0%,0%);fill-opacity:0.968627;stroke:none;"/>
  </g>
</mask>
<clipPath id="clip8">
  <rect x="0" y="0" width="100" height="100"/>
</clipPath>
<g id="surface26" clip-path="url(#clip8)">
<path style=" stroke:none;fill-rule:evenodd;fill:rgb(41.568627%,41.568627%,41.568627%);fill-opacity:1;" d="M 8.914062 51.625 C 9.777344 53.332031 10.292969 55.230469 10.464844 57.316406 C 9.175781 55.742188 8.660156 53.84375 8.914062 51.625 Z M 8.914062 51.625 "/>
</g>
<mask id="mask8">
  <g filter="url(#alpha)">
<rect x="0" y="0" width="100" height="100" style="fill:rgb(0%,0%,0%);fill-opacity:0.815686;stroke:none;"/>
  </g>
</mask>
<clipPath id="clip9">
  <rect x="0" y="0" width="100" height="100"/>
</clipPath>
<g id="surface29" clip-path="url(#clip9)">
<path style=" stroke:none;fill-rule:evenodd;fill:rgb(52.54902%,52.54902%,52.54902%);fill-opacity:1;" d="M 59.300781 56.503906 C 59.488281 58.453125 58.972656 60.078125 57.75 61.382812 C 57.824219 59.523438 58.34375 57.898438 59.300781 56.503906 Z M 59.300781 56.503906 "/>
</g>
<mask id="mask9">
  <g filter="url(#alpha)">
<rect x="0" y="0" width="100" height="100" style="fill:rgb(0%,0%,0%);fill-opacity:0.756863;stroke:none;"/>
  </g>
</mask>
<clipPath id="clip10">
  <rect x="0" y="0" width="100" height="100"/>
</clipPath>
<g id="surface32" clip-path="url(#clip10)">
<path style=" stroke:none;fill-rule:evenodd;fill:rgb(57.254902%,57.254902%,57.254902%);fill-opacity:1;" d="M 4.261719 60.570312 C 5.066406 61.730469 5.585938 63.085938 5.8125 64.632812 C 4.484375 63.710938 3.96875 62.355469 4.261719 60.570312 Z M 4.261719 60.570312 "/>
</g>
<mask id="mask10">
  <g filter="url(#alpha)">
<rect x="0" y="0" width="100" height="100" style="fill:rgb(0%,0%,0%);fill-opacity:0.188235;stroke:none;"/>
  </g>
</mask>
<clipPath id="clip11">
  <rect x="0" y="0" width="100" height="100"/>
</clipPath>
<g id="surface35" clip-path="url(#clip11)">
<path style=" stroke:none;fill-rule:evenodd;fill:rgb(71.372549%,71.372549%,71.372549%);fill-opacity:1;" d="M 8.914062 67.886719 C 9.765625 68.78125 9.894531 69.863281 9.300781 71.136719 C 8.746094 70.695312 8.359375 70.15625 8.140625 69.511719 C 8.789062 69.234375 9.046875 68.691406 8.914062 67.886719 Z M 8.914062 67.886719 "/>
</g>
<mask id="mask11">
  <g filter="url(#alpha)">
<rect x="0" y="0" width="100" height="100" style="fill:rgb(0%,0%,0%);fill-opacity:0.411765;stroke:none;"/>
  </g>
</mask>
<clipPath id="clip12">
  <rect x="0" y="0" width="100" height="100"/>
</clipPath>
<g id="surface38" clip-path="url(#clip12)">
<path style=" stroke:none;fill-rule:evenodd;fill:rgb(57.647059%,57.647059%,57.647059%);fill-opacity:1;" d="M 89.535156 68.699219 C 90.625 69.082031 91.140625 69.898438 91.085938 71.136719 C 89.996094 70.753906 89.476562 69.941406 89.535156 68.699219 Z M 89.535156 68.699219 "/>
</g>
<mask id="mask12">
  <g filter="url(#alpha)">
<rect x="0" y="0" width="100" height="100" style="fill:rgb(0%,0%,0%);fill-opacity:0.713725;stroke:none;"/>
  </g>
</mask>
<clipPath id="clip13">
  <rect x="0" y="0" width="100" height="100"/>
</clipPath>
<g id="surface41" clip-path="url(#clip13)">
<path style=" stroke:none;fill-rule:evenodd;fill:rgb(52.941176%,52.941176%,52.941176%);fill-opacity:1;" d="M 10.464844 76.828125 C 11.84375 78.039062 12.363281 79.667969 12.015625 81.707031 C 11.273438 80.242188 10.753906 78.617188 10.464844 76.828125 Z M 10.464844 76.828125 "/>
</g>
<mask id="mask13">
  <g filter="url(#alpha)">
<rect x="0" y="0" width="100" height="100" style="fill:rgb(0%,0%,0%);fill-opacity:0.670588;stroke:none;"/>
  </g>
</mask>
<clipPath id="clip14">
  <rect x="0" y="0" width="100" height="100"/>
</clipPath>
<g id="surface44" clip-path="url(#clip14)">
<path style=" stroke:none;fill-rule:evenodd;fill:rgb(49.411765%,49.411765%,49.411765%);fill-opacity:1;" d="M 23.644531 78.457031 C 20.839844 78.765625 18.253906 79.578125 15.890625 80.894531 C 15.191406 80.316406 14.933594 79.503906 15.117188 78.457031 Z M 23.644531 78.457031 "/>
</g>
<mask id="mask14">
  <g filter="url(#alpha)">
<rect x="0" y="0" width="100" height="100" style="fill:rgb(0%,0%,0%);fill-opacity:0.054902;stroke:none;"/>
  </g>
</mask>
<clipPath id="clip15">
  <rect x="0" y="0" width="100" height="100"/>
</clipPath>
<g id="surface47" clip-path="url(#clip15)">
<path style=" stroke:none;fill-rule:evenodd;fill:rgb(74.901961%,74.901961%,74.901961%);fill-opacity:1;" d="M 87.984375 82.519531 C 88.632812 82.796875 88.894531 83.339844 88.757812 84.144531 C 88.015625 85.582031 87.753906 87.207031 87.984375 89.023438 L 87.210938 89.023438 L 87.210938 83.332031 C 87.726562 83.332031 87.984375 83.0625 87.984375 82.519531 Z M 87.984375 82.519531 "/>
</g>
<mask id="mask15">
  <g filter="url(#alpha)">
<rect x="0" y="0" width="100" height="100" style="fill:rgb(0%,0%,0%);fill-opacity:0.156863;stroke:none;"/>
  </g>
</mask>
<clipPath id="clip16">
  <rect x="0" y="0" width="100" height="100"/>
</clipPath>
<g id="surface50" clip-path="url(#clip16)">
<path style=" stroke:none;fill-rule:evenodd;fill:rgb(80%,80%,80%);fill-opacity:1;" d="M 74.804688 87.398438 C 74.804688 86.855469 74.546875 86.585938 74.03125 86.585938 L 75.195312 84.144531 C 75.785156 85.417969 75.65625 86.503906 74.804688 87.398438 Z M 74.804688 87.398438 "/>
</g>
<mask id="mask16">
  <g filter="url(#alpha)">
<rect x="0" y="0" width="100" height="100" style="fill:rgb(0%,0%,0%);fill-opacity:0.666667;stroke:none;"/>
  </g>
</mask>
<clipPath id="clip17">
  <rect x="0" y="0" width="100" height="100"/>
</clipPath>
<g id="surface53" clip-path="url(#clip17)">
<path style=" stroke:none;fill-rule:evenodd;fill:rgb(63.921569%,63.921569%,63.921569%);fill-opacity:1;" d="M 89.535156 87.398438 C 90.09375 87.738281 90.480469 88.28125 90.699219 89.023438 C 91.082031 91.175781 91.210938 93.34375 91.085938 95.527344 L 91.085938 97.96875 C 90.40625 94.472656 89.886719 90.945312 89.535156 87.398438 Z M 89.535156 87.398438 "/>
</g>
<mask id="mask17">
  <g filter="url(#alpha)">
<rect x="0" y="0" width="100" height="100" style="fill:rgb(0%,0%,0%);fill-opacity:0.2;stroke:none;"/>
  </g>
</mask>
<clipPath id="clip18">
  <rect x="0" y="0" width="100" height="100"/>
</clipPath>
<g id="surface56" clip-path="url(#clip18)">
<path style=" stroke:none;fill-rule:evenodd;fill:rgb(74.901961%,74.901961%,74.901961%);fill-opacity:1;" d="M 31.394531 89.835938 C 31.816406 89.886719 32.074219 90.15625 32.171875 90.652344 C 27.398438 91.722656 22.75 91.722656 18.21875 90.652344 C 22.757812 90.914062 27.152344 90.640625 31.394531 89.835938 Z M 31.394531 89.835938 "/>
</g>
<mask id="mask18">
  <g filter="url(#alpha)">
<rect x="0" y="0" width="100" height="100" style="fill:rgb(0%,0%,0%);fill-opacity:0.815686;stroke:none;"/>
  </g>
</mask>
<clipPath id="clip19">
  <rect x="0" y="0" width="100" height="100"/>
</clipPath>
<g id="surface59" clip-path="url(#clip19)">
<path style=" stroke:none;fill-rule:evenodd;fill:rgb(25.882353%,25.882353%,25.882353%);fill-opacity:1;" d="M 87.210938 89.023438 L 87.984375 89.023438 L 87.984375 98.78125 L 85.660156 98.78125 C 87.066406 95.792969 87.585938 92.542969 87.210938 89.023438 Z M 87.210938 89.023438 "/>
</g>
<mask id="mask19">
  <g filter="url(#alpha)">
<rect x="0" y="0" width="100" height="100" style="fill:rgb(0%,0%,0%);fill-opacity:0.729412;stroke:none;"/>
  </g>
</mask>
<clipPath id="clip20">
  <rect x="0" y="0" width="100" height="100"/>
</clipPath>
<g id="surface62" clip-path="url(#clip20)">
<path style=" stroke:none;fill-rule:evenodd;fill:rgb(61.960784%,61.960784%,61.960784%);fill-opacity:1;" d="M 62.402344 96.339844 C 61.886719 95.195312 61.628906 94.109375 61.628906 93.089844 C 61.847656 92.449219 62.234375 91.90625 62.789062 91.464844 C 63.171875 93.125 63.042969 94.753906 62.402344 96.339844 Z M 62.402344 96.339844 "/>
</g>
<mask id="mask20">
  <g filter="url(#alpha)">
<rect x="0" y="0" width="100" height="100" style="fill:rgb(0%,0%,0%);fill-opacity:0.0235294;stroke:none;"/>
  </g>
</mask>
<clipPath id="clip21">
  <rect x="0" y="0" width="100" height="100"/>
</clipPath>
<g id="surface65" clip-path="url(#clip21)">
<path style=" stroke:none;fill-rule:evenodd;fill:rgb(83.921569%,83.921569%,83.921569%);fill-opacity:1;" d="M 81.007812 95.527344 L 79.457031 97.15625 C 79.289062 96.199219 79.546875 95.386719 80.234375 94.714844 C 80.703125 94.816406 80.960938 95.085938 81.007812 95.527344 Z M 81.007812 95.527344 "/>
</g>
<mask id="mask21">
  <g filter="url(#alpha)">
<rect x="0" y="0" width="100" height="100" style="fill:rgb(0%,0%,0%);fill-opacity:0.882353;stroke:none;"/>
  </g>
</mask>
<clipPath id="clip22">
  <rect x="0" y="0" width="100" height="100"/>
</clipPath>
<g id="surface68" clip-path="url(#clip22)">
<path style=" stroke:none;fill-rule:evenodd;fill:rgb(38.431373%,38.431373%,38.431373%);fill-opacity:1;" d="M 91.085938 95.527344 C 92.601562 96.867188 94.410156 97.410156 96.511719 97.15625 C 95.003906 97.820312 93.449219 98.363281 91.859375 98.78125 C 91.390625 98.679688 91.132812 98.410156 91.085938 97.96875 Z M 91.085938 95.527344 "/>
</g>
<mask id="mask22">
  <g filter="url(#alpha)">
<rect x="0" y="0" width="100" height="100" style="fill:rgb(0%,0%,0%);fill-opacity:0.223529;stroke:none;"/>
  </g>
</mask>
<clipPath id="clip23">
  <rect x="0" y="0" width="100" height="100"/>
</clipPath>
<g id="surface71" clip-path="url(#clip23)">
<path style=" stroke:none;fill-rule:evenodd;fill:rgb(78.431373%,78.431373%,78.431373%);fill-opacity:1;" d="M 79.457031 97.15625 L 79.457031 99.59375 L 74.804688 99.59375 L 74.804688 98.78125 C 76.65625 98.976562 78.207031 98.433594 79.457031 97.15625 Z M 79.457031 97.15625 "/>
</g>
<mask id="mask23">
  <g filter="url(#alpha)">
<rect x="0" y="0" width="100" height="100" style="fill:rgb(0%,0%,0%);fill-opacity:0.203922;stroke:none;"/>
  </g>
</mask>
<clipPath id="clip24">
  <rect x="0" y="0" width="100" height="100"/>
</clipPath>
<g id="surface74" clip-path="url(#clip24)">
<path style=" stroke:none;fill-rule:evenodd;fill:rgb(65.882353%,65.882353%,65.882353%);fill-opacity:1;" d="M 81.78125 97.96875 C 82.976562 98.617188 84.269531 98.890625 85.660156 98.78125 L 85.660156 99.59375 L 81.78125 99.59375 Z M 81.78125 97.96875 "/>
</g>
</defs>
<g id="surface1">
<path style=" stroke:none;fill-rule:evenodd;fill:rgb(11.372549%,11.372549%,11.372549%);fill-opacity:1;" d="M 87.984375 -0.40625 L 91.859375 -0.40625 C 93.035156 0.976562 93.8125 2.601562 94.1875 4.472656 C 91.679688 17.742188 89.226562 31.019531 86.820312 44.308594 C 85.144531 48.503906 82.558594 49.320312 79.070312 46.746094 C 78.6875 45.15625 78.554688 43.507812 78.683594 41.871094 C 79.9375 39.699219 80.453125 37.261719 80.234375 34.554688 C 81.664062 25.019531 83.34375 15.53125 85.269531 6.097656 C 85.554688 3.605469 86.460938 1.4375 87.984375 -0.40625 Z M 87.984375 -0.40625 "/>
<path style=" stroke:none;fill-rule:evenodd;fill:rgb(13.72549%,13.72549%,13.72549%);fill-opacity:1;" d="M 51.550781 16.667969 C 51.378906 17.621094 51.640625 18.433594 52.324219 19.105469 C 52.796875 19.003906 53.054688 18.734375 53.101562 18.292969 C 59.183594 15.585938 63.964844 17.210938 67.441406 23.171875 C 68.421875 26.617188 69.070312 30.15625 69.378906 33.738281 C 67.691406 43.007812 65.75 52.226562 63.566406 61.382812 C 61.421875 63.671875 58.964844 65.164062 56.203125 65.855469 C 56.777344 64.386719 57.292969 62.894531 57.75 61.382812 C 58.972656 60.078125 59.488281 58.453125 59.300781 56.503906 C 59.613281 53.5625 60.386719 50.855469 61.628906 48.375 C 62.730469 46.738281 63.25 44.839844 63.179688 42.683594 C 63.125 41.496094 63.382812 40.414062 63.953125 39.429688 C 65.171875 38.128906 65.691406 36.503906 65.503906 34.554688 L 65.503906 32.925781 C 45.359375 32.113281 25.195312 31.84375 5.039062 32.113281 C 4.820312 33.671875 5.078125 35.023438 5.8125 36.179688 C 7.214844 41.238281 8.25 46.402344 8.914062 51.625 C 8.660156 53.84375 9.175781 55.742188 10.464844 57.316406 C 11.710938 63.226562 13.265625 69.0625 15.117188 74.796875 C 31.753906 74.15625 41.832031 65.214844 45.347656 47.96875 C 43.273438 45.199219 42.625 42.082031 43.410156 38.617188 C 46.042969 35.789062 48.886719 35.515625 51.9375 37.804688 C 53.972656 41.796875 53.199219 45.050781 49.613281 47.5625 C 47.851562 59.257812 42.296875 68.335938 32.945312 74.796875 C 30.074219 76.710938 26.972656 77.929688 23.644531 78.457031 L 15.117188 78.457031 C 14.933594 79.503906 15.191406 80.316406 15.890625 80.894531 C 16.277344 83.054688 17.3125 84.816406 18.992188 86.179688 L 29.070312 86.992188 C 29.984375 87.804688 30.769531 88.765625 31.394531 89.835938 C 27.152344 90.640625 22.757812 90.914062 18.21875 90.652344 C 16.933594 90.453125 15.726562 89.890625 14.730469 89.023438 C 13.394531 86.785156 12.476562 84.304688 12.015625 81.707031 C 12.363281 79.667969 11.84375 78.039062 10.464844 76.828125 C 8.222656 75.707031 6.285156 74.078125 4.652344 71.953125 C 2.273438 67.800781 0.597656 63.464844 -0.386719 58.941406 L -0.386719 39.429688 C 0.890625 33.765625 2.054688 28.074219 3.101562 22.359375 C 5.894531 16.28125 10.546875 13.300781 17.054688 13.414062 C 19.53125 13.75 21.984375 13.886719 24.417969 13.820312 C 27.433594 9.054688 31.699219 6.75 37.210938 6.910156 C 44.359375 6.429688 49.140625 9.679688 51.550781 16.667969 Z M 64.730469 28.046875 L 6.589844 28.046875 L 6.589844 23.984375 C 9.871094 18.71875 14.523438 16.6875 20.542969 17.886719 C 22.285156 18.949219 24.09375 19.492188 25.96875 19.511719 C 30.59375 10.347656 37.054688 8.585938 45.347656 14.226562 C 47.339844 17.578125 49.027344 21.117188 50.386719 24.796875 C 54.246094 21.351562 58.378906 20.8125 62.789062 23.171875 C 63.507812 24.765625 64.15625 26.390625 64.730469 28.046875 Z M 4.261719 46.746094 C 5.511719 53.863281 7.0625 60.917969 8.914062 67.886719 C 9.046875 68.691406 8.789062 69.234375 8.140625 69.511719 L 5.8125 64.632812 C 5.585938 63.085938 5.066406 61.730469 4.261719 60.570312 C 4.253906 58.910156 3.992188 57.265625 3.488281 55.691406 C 3.246094 52.542969 3.503906 49.5625 4.261719 46.746094 Z M 4.261719 46.746094 "/>
<use xlink:href="#surface5" mask="url(#mask0)"/>
<use xlink:href="#surface8" mask="url(#mask1)"/>
<use xlink:href="#surface11" mask="url(#mask2)"/>
<use xlink:href="#surface14" mask="url(#mask3)"/>
<use xlink:href="#surface17" mask="url(#mask4)"/>
<use xlink:href="#surface20" mask="url(#mask5)"/>
<use xlink:href="#surface23" mask="url(#mask6)"/>
<path style=" stroke:none;fill-rule:evenodd;fill:rgb(6.666667%,6.666667%,6.666667%);fill-opacity:1;" d="M 89.535156 68.699219 C 89.476562 69.941406 89.996094 70.753906 91.085938 71.136719 C 94.660156 76.976562 97.523438 83.257812 99.613281 89.835938 L 99.613281 95.527344 C 98.753906 96.421875 97.722656 96.964844 96.511719 97.15625 C 94.410156 97.410156 92.601562 96.867188 91.085938 95.527344 C 91.210938 93.351562 91.082031 91.167969 90.699219 89.023438 C 90.480469 88.28125 90.09375 87.738281 89.535156 87.398438 C 88.964844 86.417969 88.707031 85.332031 88.757812 84.144531 C 88.894531 83.339844 88.632812 82.796875 87.984375 82.519531 C 87.4375 81.660156 87.179688 81.933594 87.210938 83.332031 L 87.210938 89.023438 C 87.585938 92.542969 87.066406 95.792969 85.660156 98.78125 C 84.269531 98.890625 82.976562 98.617188 81.78125 97.96875 C 81.3125 97.246094 81.042969 96.402344 81.007812 95.527344 C 80.960938 95.085938 80.703125 94.816406 80.234375 94.714844 C 79.546875 95.386719 79.289062 96.199219 79.457031 97.15625 C 78.207031 98.433594 76.65625 98.976562 74.804688 98.78125 C 73.246094 98.914062 71.671875 98.777344 70.15625 98.375 C 72.226562 94.984375 73.792969 91.28125 74.804688 87.398438 C 75.65625 86.503906 75.785156 85.417969 75.195312 84.144531 L 74.03125 86.585938 C 72.289062 91.796875 69.058594 95.59375 64.339844 97.96875 C 63.273438 97.816406 62.628906 97.277344 62.402344 96.339844 C 63.042969 94.753906 63.171875 93.125 62.789062 91.464844 C 62.234375 91.90625 61.847656 92.449219 61.628906 93.089844 C 59.585938 95.652344 57 96.601562 53.875 95.933594 C 50.664062 92.699219 50.921875 89.71875 54.652344 86.992188 C 51.808594 87.792969 48.96875 88.875 46.125 90.242188 C 41.625 90.394531 37.875 88.632812 34.882812 84.960938 C 34.351562 83.914062 34.484375 82.964844 35.269531 82.113281 C 46.449219 78.691406 56.78125 73.542969 66.277344 66.667969 C 68.21875 64.769531 70.03125 62.730469 71.707031 60.570312 C 70.863281 57.90625 70.734375 55.199219 71.316406 52.4375 C 71.707031 50.949219 72.609375 50 74.03125 49.59375 C 79.195312 49.523438 84.328125 50.488281 89.148438 52.4375 C 90.40625 56.402344 89.761719 60.058594 87.210938 63.414062 C 87.882812 65.222656 88.65625 66.988281 89.535156 68.699219 Z M 89.535156 68.699219 "/>
<use xlink:href="#surface26" mask="url(#mask7)"/>
<use xlink:href="#surface29" mask="url(#mask8)"/>
<use xlink:href="#surface32" mask="url(#mask9)"/>
<use xlink:href="#surface35" mask="url(#mask10)"/>
<use xlink:href="#surface38" mask="url(#mask11)"/>
<use xlink:href="#surface41" mask="url(#mask12)"/>
<use xlink:href="#surface44" mask="url(#mask13)"/>
<use xlink:href="#surface47" mask="url(#mask14)"/>
<use xlink:href="#surface50" mask="url(#mask15)"/>
<use xlink:href="#surface53" mask="url(#mask16)"/>
<use xlink:href="#surface56" mask="url(#mask17)"/>
<use xlink:href="#surface59" mask="url(#mask18)"/>
<use xlink:href="#surface62" mask="url(#mask19)"/>
<use xlink:href="#surface65" mask="url(#mask20)"/>
<use xlink:href="#surface68" mask="url(#mask21)"/>
<use xlink:href="#surface71" mask="url(#mask22)"/>
<use xlink:href="#surface74" mask="url(#mask23)"/>
</g>
</svg>
