<?xml version="1.0" encoding="UTF-8"?>
<!DOCTYPE svg PUBLIC "-//W3C//DTD SVG 1.1//EN" "http://www.w3.org/Graphics/SVG/1.1/DTD/svg11.dtd">
<svg xmlns="http://www.w3.org/2000/svg" version="1.1" width="129px" height="123px" style="shape-rendering:geometricPrecision; text-rendering:geometricPrecision; image-rendering:optimizeQuality; fill-rule:evenodd; clip-rule:evenodd" xmlns:xlink="http://www.w3.org/1999/xlink">
<g><path style="opacity:1" fill="#1d1d1d" d="M 113.5,-0.5 C 115.167,-0.5 116.833,-0.5 118.5,-0.5C 120.016,1.19917 121.016,3.19917 121.5,5.5C 118.269,21.8225 115.102,38.1558 112,54.5C 109.836,59.6622 106.502,60.6622 102,57.5C 101.505,55.5273 101.338,53.5273 101.5,51.5C 103.118,48.8291 103.785,45.8291 103.5,42.5C 105.343,30.7833 107.51,19.1167 110,7.5C 110.368,4.43489 111.535,1.76822 113.5,-0.5 Z"/></g>
<g><path style="opacity:1" fill="#232323" d="M 66.5,20.5 C 66.281,21.675 66.6143,22.675 67.5,23.5C 68.1067,23.3764 68.44,23.0431 68.5,22.5C 76.3459,19.1705 82.5126,21.1705 87,28.5C 88.2631,32.7442 89.0964,37.0776 89.5,41.5C 87.3202,52.8986 84.8202,64.2319 82,75.5C 79.2342,78.3175 76.0675,80.1508 72.5,81C 73.2444,79.1852 73.9111,77.3519 74.5,75.5C 76.0739,73.8984 76.7406,71.8984 76.5,69.5C 76.8993,65.8835 77.8993,62.5502 79.5,59.5C 80.9238,57.4855 81.5905,55.1522 81.5,52.5C 81.4326,51.0413 81.7659,49.7079 82.5,48.5C 84.0739,46.8984 84.7406,44.8984 84.5,42.5C 84.5,41.8333 84.5,41.1667 84.5,40.5C 58.672,39.5022 32.672,39.1689 6.5,39.5C 6.21552,41.4147 6.54885,43.0813 7.5,44.5C 9.30775,50.7313 10.6411,57.0647 11.5,63.5C 11.1706,66.2282 11.8372,68.5615 13.5,70.5C 15.1168,77.8037 17.1168,84.9703 19.5,92C 40.9647,91.2144 53.9647,80.2144 58.5,59C 55.8212,55.5932 54.9879,51.7599 56,47.5C 59.3969,44.0193 63.0636,43.686 67,46.5C 69.6261,51.4123 68.6261,55.4123 64,58.5C 61.7297,72.8886 54.563,84.0553 42.5,92C 38.797,94.354 34.797,95.854 30.5,96.5C 26.8333,96.5 23.1667,96.5 19.5,96.5C 19.2627,97.791 19.596,98.791 20.5,99.5C 21.0007,102.155 22.3341,104.322 24.5,106C 28.8333,106.333 33.1667,106.667 37.5,107C 38.7101,108.039 39.7101,109.206 40.5,110.5C 35.0247,111.489 29.358,111.822 23.5,111.5C 21.8297,111.249 20.3297,110.582 19,109.5C 17.2589,106.691 16.0922,103.691 15.5,100.5C 15.9465,97.9899 15.2798,95.9899 13.5,94.5C 10.6057,93.1177 8.1057,91.1177 6,88.5C 2.93542,83.3931 0.768757,78.0598 -0.5,72.5C -0.5,64.5 -0.5,56.5 -0.5,48.5C 1.1235,41.6551 2.6235,34.6551 4,27.5C 7.60324,20.0269 13.6032,16.3602 22,16.5C 25.1957,16.9133 28.3624,17.08 31.5,17C 35.3908,11.1374 40.8908,8.30406 48,8.5C 57.2248,7.90652 63.3915,11.9065 66.5,20.5 Z M 83.5,34.5 C 58.5,34.5 33.5,34.5 8.5,34.5C 8.5,32.8333 8.5,31.1667 8.5,29.5C 12.734,23.0265 18.734,20.5265 26.5,22C 28.7467,23.3088 31.0801,23.9755 33.5,24C 39.4661,12.726 47.7994,10.5594 58.5,17.5C 61.0893,21.6665 63.256,25.9998 65,30.5C 69.9765,26.2638 75.3099,25.5971 81,28.5C 81.9383,30.4885 82.7717,32.4885 83.5,34.5 Z M 5.5,57.5 C 7.13572,66.3615 9.13572,75.0281 11.5,83.5C 11.6716,84.4916 11.3382,85.1583 10.5,85.5C 9.5,83.5 8.5,81.5 7.5,79.5C 7.20414,77.597 6.53747,75.9303 5.5,74.5C 5.48285,72.4352 5.14952,70.4352 4.5,68.5C 4.18503,64.6286 4.51836,60.9619 5.5,57.5 Z"/></g>
<g><path style="opacity:0.192" fill="#b7b7b7" d="M 66.5,20.5 C 67.1667,21.1667 67.8333,21.8333 68.5,22.5C 68.44,23.0431 68.1067,23.3764 67.5,23.5C 66.6143,22.675 66.281,21.675 66.5,20.5 Z"/></g>
<g><path style="opacity:0.269" fill="#b4b4b4" d="M 8.5,29.5 C 8.5,31.1667 8.5,32.8333 8.5,34.5C 33.5,34.5 58.5,34.5 83.5,34.5C 58.3388,35.4977 33.0055,35.8311 7.5,35.5C 7.20528,33.2646 7.53862,31.2646 8.5,29.5 Z"/></g>
<g><path style="opacity:0.114" fill="#dadada" d="M 84.5,40.5 C 58.8333,40.5 33.1667,40.5 7.5,40.5C 7.5,41.8333 7.5,43.1667 7.5,44.5C 6.54885,43.0813 6.21552,41.4147 6.5,39.5C 32.672,39.1689 58.672,39.5022 84.5,40.5 Z"/></g>
<g><path style="opacity:0.957" fill="#676767" d="M 84.5,42.5 C 84.7406,44.8984 84.0739,46.8984 82.5,48.5C 82.595,46.2143 83.2616,44.2143 84.5,42.5 Z"/></g>
<g><path style="opacity:0.133" fill="#acacac" d="M 103.5,42.5 C 103.785,45.8291 103.118,48.8291 101.5,51.5C 101.676,48.2727 102.343,45.2727 103.5,42.5 Z"/></g>
<g><path style="opacity:0.851" fill="#787878" d="M 81.5,52.5 C 81.5905,55.1522 80.9238,57.4855 79.5,59.5C 79.4095,56.8478 80.0762,54.5145 81.5,52.5 Z"/></g>
<g><path style="opacity:0.373" fill="#969696" d="M 5.5,57.5 C 4.51836,60.9619 4.18503,64.6286 4.5,68.5C 3.18635,63.6523 3.18635,58.6523 4.5,53.5C 5.42869,54.6888 5.76202,56.0222 5.5,57.5 Z"/></g>
<g><path style="opacity:1" fill="#111111" d="M 115.5,84.5 C 115.427,86.0269 116.094,87.0269 117.5,87.5C 122.126,94.7135 125.793,102.38 128.5,110.5C 128.5,112.833 128.5,115.167 128.5,117.5C 127.395,118.6 126.062,119.267 124.5,119.5C 121.789,119.815 119.456,119.148 117.5,117.5C 117.664,114.813 117.497,112.146 117,109.5C 116.722,108.584 116.222,107.918 115.5,107.5C 114.766,106.292 114.433,104.959 114.5,103.5C 114.672,102.508 114.338,101.842 113.5,101.5C 112.794,100.443 112.461,100.776 112.5,102.5C 112.5,104.833 112.5,107.167 112.5,109.5C 112.984,113.827 112.318,117.827 110.5,121.5C 108.708,121.634 107.042,121.301 105.5,120.5C 104.89,119.609 104.557,118.609 104.5,117.5C 104.44,116.957 104.107,116.624 103.5,116.5C 102.614,117.325 102.281,118.325 102.5,119.5C 100.886,121.075 98.8863,121.741 96.5,121.5C 94.4727,121.662 92.4727,121.495 90.5,121C 93.19,116.788 95.19,112.288 96.5,107.5C 97.5983,106.399 97.765,105.066 97,103.5C 96.4867,104.527 95.9867,105.527 95.5,106.5C 93.2527,112.912 89.086,117.579 83,120.5C 81.6244,120.316 80.7911,119.649 80.5,118.5C 81.3235,116.545 81.4901,114.545 81,112.5C 80.2828,113.044 79.7828,113.711 79.5,114.5C 76.8639,117.651 73.5305,118.818 69.5,118C 65.3562,114.021 65.6896,110.355 70.5,107C 66.8347,107.984 63.168,109.317 59.5,111C 53.6946,111.184 48.8613,109.017 45,104.5C 44.3162,103.216 44.4829,102.049 45.5,101C 59.9166,96.7902 73.2499,90.4569 85.5,82C 88.0168,79.6506 90.3501,77.1506 92.5,74.5C 91.4149,71.227 91.2483,67.8936 92,64.5C 92.5,62.6667 93.6667,61.5 95.5,61C 102.236,60.9281 108.736,62.0947 115,64.5C 116.626,69.3738 115.793,73.8738 112.5,78C 113.391,80.2789 114.391,82.4456 115.5,84.5 Z"/></g>
<g><path style="opacity:0.969" fill="#6a6a6a" d="M 11.5,63.5 C 12.6118,65.5994 13.2785,67.9327 13.5,70.5C 11.8372,68.5615 11.1706,66.2282 11.5,63.5 Z"/></g>
<g><path style="opacity:0.816" fill="#868686" d="M 76.5,69.5 C 76.7406,71.8984 76.0739,73.8984 74.5,75.5C 74.595,73.2143 75.2616,71.2143 76.5,69.5 Z"/></g>
<g><path style="opacity:0.757" fill="#929292" d="M 5.5,74.5 C 6.53747,75.9303 7.20414,77.597 7.5,79.5C 5.78679,78.3646 5.12012,76.698 5.5,74.5 Z"/></g>
<g><path style="opacity:0.188" fill="#b6b6b6" d="M 11.5,83.5 C 12.5983,84.6009 12.765,85.9343 12,87.5C 11.2828,86.9558 10.7828,86.2891 10.5,85.5C 11.3382,85.1583 11.6716,84.4916 11.5,83.5 Z"/></g>
<g><path style="opacity:0.412" fill="#939393" d="M 115.5,84.5 C 116.906,84.9731 117.573,85.9731 117.5,87.5C 116.094,87.0269 115.427,86.0269 115.5,84.5 Z"/></g>
<g><path style="opacity:0.714" fill="#878787" d="M 13.5,94.5 C 15.2798,95.9899 15.9465,97.9899 15.5,100.5C 14.5418,98.6976 13.8751,96.6976 13.5,94.5 Z"/></g>
<g><path style="opacity:0.671" fill="#7e7e7e" d="M 30.5,96.5 C 26.8812,96.8813 23.5479,97.8813 20.5,99.5C 19.596,98.791 19.2627,97.791 19.5,96.5C 23.1667,96.5 26.8333,96.5 30.5,96.5 Z"/></g>
<g><path style="opacity:0.055" fill="#bfbfbf" d="M 113.5,101.5 C 114.338,101.842 114.672,102.508 114.5,103.5C 113.539,105.265 113.205,107.265 113.5,109.5C 113.167,109.5 112.833,109.5 112.5,109.5C 112.5,107.167 112.5,104.833 112.5,102.5C 113.167,102.5 113.5,102.167 113.5,101.5 Z"/></g>
<g><path style="opacity:0.157" fill="#cccccc" d="M 96.5,107.5 C 96.5,106.833 96.1667,106.5 95.5,106.5C 95.9867,105.527 96.4867,104.527 97,103.5C 97.765,105.066 97.5983,106.399 96.5,107.5 Z"/></g>
<g><path style="opacity:0.667" fill="#a3a3a3" d="M 115.5,107.5 C 116.222,107.918 116.722,108.584 117,109.5C 117.497,112.146 117.664,114.813 117.5,117.5C 117.5,118.5 117.5,119.5 117.5,120.5C 116.642,116.327 115.976,111.993 115.5,107.5 Z"/></g>
<g><path style="opacity:0.2" fill="#bfbfbf" d="M 40.5,110.5 C 41.0431,110.56 41.3764,110.893 41.5,111.5C 35.3456,112.817 29.3456,112.817 23.5,111.5C 29.358,111.822 35.0247,111.489 40.5,110.5 Z"/></g>
<g><path style="opacity:0.816" fill="#424242" d="M 112.5,109.5 C 112.833,109.5 113.167,109.5 113.5,109.5C 113.5,113.5 113.5,117.5 113.5,121.5C 112.5,121.5 111.5,121.5 110.5,121.5C 112.318,117.827 112.984,113.827 112.5,109.5 Z"/></g>
<g><path style="opacity:0.729" fill="#9e9e9e" d="M 80.5,118.5 C 79.8344,117.088 79.5011,115.755 79.5,114.5C 79.7828,113.711 80.2828,113.044 81,112.5C 81.4901,114.545 81.3235,116.545 80.5,118.5 Z"/></g>
<g><path style="opacity:0.024" fill="#d6d6d6" d="M 104.5,117.5 C 103.833,118.167 103.167,118.833 102.5,119.5C 102.281,118.325 102.614,117.325 103.5,116.5C 104.107,116.624 104.44,116.957 104.5,117.5 Z"/></g>
<g><path style="opacity:0.882" fill="#626262" d="M 117.5,117.5 C 119.456,119.148 121.789,119.815 124.5,119.5C 122.657,120.283 120.657,120.95 118.5,121.5C 117.893,121.376 117.56,121.043 117.5,120.5C 117.5,119.5 117.5,118.5 117.5,117.5 Z"/></g>
<g><path style="opacity:0.224" fill="#c8c8c8" d="M 102.5,119.5 C 102.5,120.5 102.5,121.5 102.5,122.5C 100.5,122.5 98.5,122.5 96.5,122.5C 96.5,122.167 96.5,121.833 96.5,121.5C 98.8863,121.741 100.886,121.075 102.5,119.5 Z"/></g>
<g><path style="opacity:0.204" fill="#a8a8a8" d="M 105.5,120.5 C 107.042,121.301 108.708,121.634 110.5,121.5C 110.5,121.833 110.5,122.167 110.5,122.5C 108.833,122.5 107.167,122.5 105.5,122.5C 105.5,121.833 105.5,121.167 105.5,120.5 Z"/></g>
</svg>
