<?xml version="1.0" encoding="UTF-8"?>
<!DOCTYPE svg PUBLIC "-//W3C//DTD SVG 1.1//EN" "http://www.w3.org/Graphics/SVG/1.1/DTD/svg11.dtd">
<svg xmlns="http://www.w3.org/2000/svg" version="1.1" width="107px" height="116px" style="shape-rendering:geometricPrecision; text-rendering:geometricPrecision; image-rendering:optimizeQuality; fill-rule:evenodd; clip-rule:evenodd" xmlns:xlink="http://www.w3.org/1999/xlink">
<g><path style="opacity:1" fill="#1f1f1f" d="M 41.5,-0.5 C 44.5,-0.5 47.5,-0.5 50.5,-0.5C 55.7476,1.4654 60.4143,4.4654 64.5,8.5C 68.5857,4.4654 73.2524,1.4654 78.5,-0.5C 81.5,-0.5 84.5,-0.5 87.5,-0.5C 96.6714,2.00517 103.005,7.67184 106.5,16.5C 106.5,21.8333 106.5,27.1667 106.5,32.5C 104.692,35.4362 102.859,38.4362 101,41.5C 90.1225,51.6989 80.1225,62.3656 71,73.5C 73.405,72.7256 75.905,72.2256 78.5,72C 82.2787,65.7078 87.612,61.5411 94.5,59.5C 97.8067,58.9492 101.14,58.6159 104.5,58.5C 105.167,58.5 105.833,58.5 106.5,58.5C 106.5,60.8333 106.5,63.1667 106.5,65.5C 101.856,72.1061 97.6893,79.1061 94,86.5C 88.3571,93.4059 81.1905,97.9059 72.5,100C 52.3967,99.438 34.0634,104.605 17.5,115.5C 15.5,115.5 13.5,115.5 11.5,115.5C 9.95208,112.742 10.2854,110.242 12.5,108C 31.1811,96.5785 51.5144,90.9118 73.5,91C 78.9638,89.1863 83.4638,86.0196 87,81.5C 89.3742,77.2505 91.8742,73.0838 94.5,69C 93.8333,68.3333 93.1667,68.3333 92.5,69C 88.5909,72.8517 84.9242,76.8517 81.5,81C 67.5,81.6667 53.5,81.6667 39.5,81C 37.3517,78.9251 37.0183,76.5918 38.5,74C 43.4164,72.8394 48.4164,72.1728 53.5,72C 55.792,70.7101 57.792,69.0435 59.5,67C 50.5,66.3333 41.5,66.3333 32.5,67C 26.8763,68.9564 22.043,72.123 18,76.5C 14.2075,83.2545 10.0409,89.7545 5.5,96C 3.40239,96.6776 1.40239,96.5109 -0.5,95.5C -0.5,93.5 -0.5,91.5 -0.5,89.5C 4.62401,80.779 10.624,72.6124 17.5,65C 22.2838,61.4401 27.6172,59.2735 33.5,58.5C 37.226,58.8226 40.8927,58.4892 44.5,57.5C 44.3764,56.8933 44.0431,56.56 43.5,56.5C 35.0326,49.8682 28.1993,41.8682 23,32.5C 19.8569,16.1073 26.0236,5.10729 41.5,-0.5 Z M 40.5,8.5 C 48.4801,6.99049 54.8135,9.49049 59.5,16C 62.2423,18.7703 65.2423,19.1036 68.5,17C 76.3058,7.17173 85.1391,6.00507 95,13.5C 99.907,21.4186 99.5737,29.0853 94,36.5C 85.6667,44.8333 77.3333,53.1667 69,61.5C 68.5348,60.0692 67.7014,58.9025 66.5,58C 62.5,57.6667 58.5,57.3333 54.5,57C 48.6987,50.1975 42.5321,43.6975 36,37.5C 27.6225,26.1639 29.1225,16.4973 40.5,8.5 Z"/></g>
<g><path style="opacity:1" fill="#202020" d="M 73.5,19.5 C 75.1992,19.3398 76.8659,19.5065 78.5,20C 82.0285,24.6958 85.3618,29.5291 88.5,34.5C 87.8333,37.1667 86.1667,38.8333 83.5,39.5C 80.8387,37.6704 78.6721,35.3371 77,32.5C 75.1667,36.8333 73.3333,41.1667 71.5,45.5C 69.5787,46.641 67.5787,46.8077 65.5,46C 63.4599,42.0856 61.2933,38.2522 59,34.5C 55.3007,39.272 50.4674,40.772 44.5,39C 39.8927,36.7651 39.5593,34.0984 43.5,31C 46.1667,30.6667 48.8333,30.3333 51.5,30C 54.062,26.9348 57.062,24.4348 60.5,22.5C 64.1798,24.8211 66.6798,28.1545 68,32.5C 69.297,27.9099 71.1303,23.5766 73.5,19.5 Z"/></g>
<g><path style="opacity:0.328" fill="#a4a4a4" d="M 43.5,56.5 C 44.0431,56.56 44.3764,56.8933 44.5,57.5C 40.8927,58.4892 37.226,58.8226 33.5,58.5C 36.8333,57.8333 40.1667,57.1667 43.5,56.5 Z"/></g>
<g><path style="opacity:0.914" fill="#7b7b7b" d="M 104.5,58.5 C 101.14,58.6159 97.8067,58.9492 94.5,59.5C 97.7076,57.4686 101.041,57.1353 104.5,58.5 Z"/></g>
</svg>
