<?xml version="1.0" encoding="UTF-8"?>
<svg xmlns="http://www.w3.org/2000/svg" xmlns:xlink="http://www.w3.org/1999/xlink" width="100px" height="100px" viewBox="0 0 100 100" version="1.1">
<defs>
<filter id="alpha" filterUnits="objectBoundingBox" x="0%" y="0%" width="100%" height="100%">
  <feColorMatrix type="matrix" in="SourceGraphic" values="0 0 0 0 1 0 0 0 0 1 0 0 0 0 1 0 0 0 1 0"/>
</filter>
<mask id="mask0">
  <g filter="url(#alpha)">
<rect x="0" y="0" width="100" height="100" style="fill:rgb(0%,0%,0%);fill-opacity:0.101961;stroke:none;"/>
  </g>
</mask>
<clipPath id="clip1">
  <rect x="0" y="0" width="100" height="100"/>
</clipPath>
<g id="surface5" clip-path="url(#clip1)">
<path style=" stroke:none;fill-rule:nonzero;fill:rgb(100%,100%,100%);fill-opacity:1;" d="M 95.453125 47.726562 C 95.453125 74.085938 74.085938 95.453125 47.726562 95.453125 C 21.367188 95.453125 0 74.085938 0 47.726562 C 0 21.367188 21.367188 0 47.726562 0 C 74.085938 0 95.453125 21.367188 95.453125 47.726562 Z M 95.453125 47.726562 "/>
</g>
<mask id="mask1">
  <g filter="url(#alpha)">
<rect x="0" y="0" width="100" height="100" style="fill:rgb(0%,0%,0%);fill-opacity:0.101961;stroke:none;"/>
  </g>
</mask>
<clipPath id="clip2">
  <rect x="0" y="0" width="100" height="100"/>
</clipPath>
<g id="surface8" clip-path="url(#clip2)">
<path style=" stroke:none;fill-rule:nonzero;fill:rgb(100%,100%,100%);fill-opacity:1;" d="M 100 52.273438 C 100 78.632812 78.632812 100 52.273438 100 C 25.914062 100 4.546875 78.632812 4.546875 52.273438 C 4.546875 25.914062 25.914062 4.546875 52.273438 4.546875 C 78.632812 4.546875 100 25.914062 100 52.273438 Z M 100 52.273438 "/>
</g>
</defs>
<g id="surface1">
<use xlink:href="#surface5" mask="url(#mask0)"/>
<use xlink:href="#surface8" mask="url(#mask1)"/>
<path style=" stroke:none;fill-rule:nonzero;fill:rgb(100%,100%,100%);fill-opacity:1;" d="M 60.484375 59.207031 C 60.070312 58.804688 59.410156 58.8125 59.007812 59.222656 L 58.976562 59.253906 C 58.574219 59.664062 58.578125 60.324219 58.992188 60.730469 C 59.402344 61.132812 60.066406 61.125 60.46875 60.714844 L 60.5 60.683594 C 60.902344 60.273438 60.894531 59.609375 60.484375 59.207031 Z M 60.484375 59.207031 "/>
<path style=" stroke:none;fill-rule:nonzero;fill:rgb(100%,100%,100%);fill-opacity:1;" d="M 71.714844 48.261719 L 68.941406 48.261719 L 68.941406 45.488281 C 68.941406 44.910156 68.472656 44.445312 67.894531 44.445312 C 67.316406 44.445312 66.851562 44.910156 66.851562 45.488281 L 66.851562 48.261719 L 64.078125 48.261719 C 63.5 48.261719 63.03125 48.730469 63.03125 49.308594 C 63.03125 49.882812 63.5 50.351562 64.078125 50.351562 L 66.851562 50.351562 L 66.851562 53.125 C 66.851562 53.703125 67.316406 54.171875 67.894531 54.171875 C 68.472656 54.171875 68.941406 53.703125 68.941406 53.125 L 68.941406 50.351562 L 71.714844 50.351562 C 72.292969 50.351562 72.761719 49.882812 72.761719 49.308594 C 72.761719 48.730469 72.292969 48.261719 71.714844 48.261719 Z M 71.714844 48.261719 "/>
<path style=" stroke:none;fill-rule:nonzero;fill:rgb(100%,100%,100%);fill-opacity:1;" d="M 71.308594 40.777344 C 70.414062 33.628906 64.367188 28.246094 57.160156 28.183594 C 53.585938 28.175781 50.144531 29.539062 47.546875 31.992188 C 44.945312 29.535156 41.5 28.171875 37.921875 28.183594 C 29.941406 28.285156 23.554688 34.828125 23.636719 42.808594 C 23.703125 44.671875 24.179688 46.496094 25.027344 48.15625 L 24.679688 48.15625 C 24.105469 48.15625 23.636719 48.625 23.636719 49.203125 C 23.636719 49.78125 24.105469 50.25 24.679688 50.25 L 26.136719 50.25 C 28.742188 54.359375 31.84375 58.132812 35.375 61.480469 C 39.023438 65.078125 42.875 68.464844 46.910156 71.621094 C 47.285156 71.90625 47.804688 71.90625 48.175781 71.621094 C 48.222656 71.589844 52.640625 68.199219 57.539062 63.582031 C 57.960938 63.1875 57.980469 62.527344 57.585938 62.109375 C 57.1875 61.6875 56.527344 61.667969 56.109375 62.066406 C 52.375 65.585938 48.925781 68.378906 47.546875 69.46875 C 43.8125 66.5 40.238281 63.335938 36.839844 59.984375 C 33.761719 57.03125 31 53.765625 28.589844 50.246094 L 37.9375 50.246094 C 38.402344 50.246094 38.808594 49.9375 38.9375 49.488281 L 40.761719 43.132812 L 45.8125 59.316406 C 45.945312 59.75 46.351562 60.046875 46.808594 60.046875 C 47.265625 60.046875 47.667969 59.75 47.804688 59.316406 L 50.601562 50.351562 L 55.261719 50.351562 C 55.839844 50.351562 56.308594 49.882812 56.308594 49.304688 C 56.308594 48.726562 55.839844 48.261719 55.261719 48.261719 L 49.835938 48.261719 C 49.378906 48.257812 48.972656 48.554688 48.835938 48.992188 L 46.808594 55.496094 L 41.71875 39.183594 C 41.582031 38.742188 41.171875 38.445312 40.707031 38.449219 C 40.246094 38.453125 39.84375 38.761719 39.71875 39.207031 L 37.148438 48.15625 L 27.355469 48.15625 C 26.394531 46.527344 25.835938 44.695312 25.726562 42.808594 C 25.644531 35.984375 31.097656 30.378906 37.921875 30.273438 C 41.292969 30.269531 44.507812 31.6875 46.773438 34.183594 C 46.972656 34.398438 47.25 34.519531 47.539062 34.519531 C 47.832031 34.519531 48.109375 34.398438 48.308594 34.183594 C 50.574219 31.6875 53.789062 30.269531 57.160156 30.273438 C 62.988281 30.328125 67.976562 34.476562 69.089844 40.199219 C 64.28125 39.566406 59.804688 42.78125 58.871094 47.542969 C 57.9375 52.304688 60.867188 56.96875 65.5625 58.199219 C 70.257812 59.425781 75.097656 56.796875 76.617188 52.1875 C 78.136719 47.578125 75.8125 42.582031 71.304688 40.777344 Z M 67.894531 56.40625 C 63.976562 56.40625 60.796875 53.226562 60.796875 49.308594 C 60.796875 45.386719 63.976562 42.210938 67.894531 42.210938 C 71.816406 42.210938 74.996094 45.386719 74.996094 49.308594 C 74.988281 53.226562 71.816406 56.402344 67.894531 56.40625 Z M 67.894531 56.40625 "/>
</g>
</svg>
