<?xml version="1.0" standalone="no"?>
<!DOCTYPE svg PUBLIC "-//W3C//DTD SVG 20010904//EN"
 "http://www.w3.org/TR/2001/REC-SVG-20010904/DTD/svg10.dtd">
<svg version="1.0" xmlns="http://www.w3.org/2000/svg"
 width="807.000000pt" height="1280.000000pt" viewBox="0 0 807.000000 1280.000000"
 preserveAspectRatio="xMidYMid meet">
<metadata>
Created by potrace 1.15, written by Peter Selinger 2001-2017
</metadata>
<g transform="translate(0.000000,1280.000000) scale(0.100000,-0.100000)"
fill="#000000" stroke="none">
<path d="M6443 12726 c-166 -139 -380 -379 -404 -454 -6 -21 -36 -75 -66 -121
-88 -136 -100 -178 -135 -491 l-31 -275 -52 -75 -53 -75 -17 -195 c-14 -150
-16 -213 -8 -274 10 -86 7 -107 -92 -581 -19 -93 -35 -178 -35 -188 0 -11 -43
-130 -96 -265 -353 -911 -924 -2382 -1014 -2612 -99 -254 -109 -275 -133 -278
-14 -2 -28 -11 -32 -20 -24 -59 -237 -702 -240 -725 -2 -15 -49 -143 -103
-285 -55 -141 -317 -815 -582 -1497 -265 -682 -545 -1402 -622 -1600 -77 -198
-143 -364 -147 -370 -5 -5 -18 -39 -30 -75 -19 -58 -25 -67 -64 -88 l-44 -23
-46 -174 c-40 -152 -44 -177 -34 -205 11 -28 7 -46 -38 -178 -28 -81 -49 -149
-48 -152 29 -73 31 -60 -38 -204 l-64 -135 -152 -1 c-95 0 -153 -4 -153 -10 0
-6 -47 -10 -120 -10 l-120 0 -93 -67 c-50 -36 -141 -106 -201 -155 l-110 -90
-370 7 -371 7 -73 -26 c-52 -18 -113 -53 -210 -121 -176 -123 -186 -139 -196
-290 l-7 -111 398 -28 c219 -15 452 -32 518 -37 213 -16 981 -79 1275 -104
157 -13 362 -28 455 -34 94 -6 276 -18 405 -27 l235 -15 120 57 c66 31 156 72
200 90 70 28 80 35 78 56 -20 184 -35 285 -48 330 l-15 54 -153 13 c-83 6
-175 14 -204 17 l-52 6 32 57 c27 49 32 66 29 113 -4 53 -6 57 -48 87 -41 30
-49 32 -119 30 -69 -2 -79 -5 -118 -35 -23 -18 -78 -74 -121 -124 -54 -63 -81
-88 -86 -78 -4 7 -12 63 -19 123 -13 112 -38 199 -70 244 -18 24 -17 26 16
110 19 47 40 91 47 96 6 6 21 29 33 51 22 42 283 851 283 876 0 7 44 130 99
273 198 522 1195 3144 1250 3290 44 116 61 151 76 154 11 2 36 16 55 31 33 27
39 42 141 381 69 232 102 358 96 366 -6 8 81 248 258 715 147 387 375 987 507
1333 132 347 276 727 321 845 45 118 86 220 92 225 7 6 27 30 45 55 19 25 51
65 72 89 35 40 38 49 38 104 0 52 6 71 44 141 24 45 69 142 101 216 79 187 74
178 94 154 9 -10 30 -31 47 -47 l30 -27 54 40 c41 30 66 61 101 123 l47 82 11
172 c6 94 11 184 11 200 0 21 18 50 64 106 36 42 91 120 123 172 44 72 61 92
69 82 7 -7 30 -54 53 -105 39 -91 42 -102 96 -486 61 -436 63 -481 45 -917 -9
-224 -10 -232 -105 -755 l-96 -529 -220 -549 c-159 -396 -251 -611 -331 -770
-61 -122 -118 -225 -127 -230 -9 -5 -89 -81 -178 -169 l-163 -161 -125 -220
c-165 -289 -211 -417 -250 -701 -15 -104 -29 -192 -32 -195 -2 -3 -26 -10 -51
-15 l-47 -10 -3 -263 -2 -263 35 -15 c32 -13 36 -19 33 -45 -3 -29 -10 -34
-148 -94 -234 -103 -273 -130 -355 -244 -46 -64 -128 -154 -241 -264 -144
-140 -176 -167 -201 -167 -25 0 -40 -13 -106 -96 -162 -203 -324 -595 -348
-839 -18 -183 -48 -419 -72 -560 -14 -82 -35 -249 -46 -370 -12 -121 -25 -258
-31 -305 -5 -47 -12 -125 -16 -175 -5 -73 -12 -101 -38 -150 l-31 -60 -3 -417
c-3 -463 -5 -444 68 -628 29 -72 33 -77 98 -116 89 -54 86 -54 233 -60 l129
-6 -5 34 -5 33 10 -32 c6 -18 16 -33 23 -33 7 0 86 -9 176 -21 l165 -20 23 30
23 30 53 -23 c28 -13 59 -25 68 -29 14 -4 15 -14 8 -56 -11 -74 21 -129 112
-188 l69 -44 262 -10 c145 -6 353 -13 463 -17 l200 -7 55 26 c40 19 64 40 89
75 30 43 34 57 39 131 6 104 15 109 112 54 l71 -40 147 -7 147 -7 75 -42 c69
-39 82 -43 174 -49 67 -5 112 -14 138 -27 36 -19 41 -19 110 -3 81 18 192 75
209 106 11 20 11 20 34 -2 23 -21 26 -22 87 -8 57 12 63 16 68 42 l5 29 48
-59 c43 -52 55 -60 100 -70 50 -10 55 -9 124 24 67 33 74 40 112 107 23 39 55
111 72 160 29 85 32 102 39 295 5 113 14 268 20 345 20 229 2 523 -44 691 -10
37 -25 62 -55 90 l-42 39 -9 265 c-6 146 -7 391 -4 545 6 256 4 293 -16 430
-13 88 -45 235 -77 355 -56 204 -57 206 -130 318 -40 63 -96 141 -123 175
l-49 61 -118 37 c-72 22 -117 41 -115 49 3 12 -64 127 -164 280 -76 116 -195
232 -348 338 -27 18 -50 42 -53 53 -5 16 -11 18 -38 13 -25 -4 -75 9 -209 55
-162 56 -320 91 -405 91 l-26 0 3 275 c3 249 1 275 -13 275 -19 0 -17 31 16
204 17 92 57 216 69 216 3 0 11 -25 19 -56 9 -39 33 -88 79 -156 59 -88 76
-107 166 -172 99 -72 103 -74 221 -100 96 -21 146 -26 251 -26 117 0 139 3
216 29 118 40 253 111 363 192 82 61 101 81 177 191 135 196 183 334 228 654
18 123 8 260 -28 391 -28 103 -38 123 -109 227 l-78 114 -180 61 -180 61 -132
0 c-73 0 -133 2 -133 5 0 2 28 66 61 142 58 131 108 255 213 528 25 66 77 244
116 395 38 151 79 309 90 350 11 42 31 183 45 320 14 135 34 286 45 335 36
170 39 201 52 545 15 422 15 414 0 635 -24 344 -38 434 -98 643 -93 320 -197
510 -346 630 -92 74 -97 76 -215 93 -88 12 -95 12 -192 -14 -79 -20 -113 -35
-154 -67 -52 -39 -56 -40 -131 -40 -69 0 -77 2 -72 18 3 9 17 69 32 132 26
111 30 120 132 282 61 97 127 188 158 219 l53 52 -37 53 -37 53 -87 1 -86 0
-89 -74z m760 -5791 c33 -7 60 -15 62 -17 2 -2 15 -30 30 -63 l26 -60 -12
-129 c-11 -127 -12 -130 -78 -275 l-67 -146 -90 -68 c-172 -130 -149 -121
-260 -108 -97 12 -97 12 -153 63 -55 49 -56 53 -72 134 l-17 84 33 98 c18 53
42 136 55 183 l22 86 107 82 c87 65 126 88 202 115 106 39 129 41 212 21z"/>
</g>
</svg>
